<?xml version="1.0" encoding="UTF-8"?>
<svg id="Layer_1" data-name="Layer 1" xmlns="http://www.w3.org/2000/svg" viewBox="0 0 325.57 343.91">
  <defs>
    <style>
      .cls-1, .cls-2 {
        fill: #e07a5f;
      }

      .cls-2 {
        font-family: MarrieDream-Regular, 'Marrie Dream';
        font-size: 90px;
      }

      .cls-3 {
        letter-spacing: 0em;
      }
    </style>
  </defs>
  <g>
    <g>
      <path class="cls-1" d="m35.19,29.35c.2-.05.36-.18.43-.35.08-.19.06-.4-.06-.61-.19-.33-.48-.53-.74-.68-.23-.13-.45-.26-.68-.37v-.03c.1-.32,0-.58-.08-.77-.21-.51-.42-1.03-.65-1.53-.52-1.14-1.34-2.11-2.46-2.87-1.37-.93-2.88-1.45-4.49-1.54-.74-.04-1.55-.03-2.48.04l-1.42.1c-.68.05-1.36.09-2.04.15-.67.05-1.18-.06-1.64-.37-.12-.08-.27-.15-.43-.19-.18-.05-.38,0-.54.12-.15.13-.23.31-.22.5.01.16.07.31.12.44l.45,1.18c.19.52.39,1.05.69,1.55.94,1.55,2.19,2.77,3.7,3.65,1.66.96,3.62,1.57,5.97,1.87.72.09,1.44.13,2.16.13,1.09,0,2.16-.08,3.19-.19.42-.04.83-.14,1.22-.24Zm-10.67-7h.44c.74.01,1.47.06,2.18.13,1.09.11,2.13.47,3.2,1.09,1.1.64,1.88,1.49,2.4,2.6.11.23.21.46.33.69-.43-.17-.87-.3-1.31-.4-.41-.1-.82-.18-1.23-.26-2.78-.51-5.02-1.15-7.06-2.02-.25-.11-.51-.19-.77-.27-.12-.04-.23-.03-.38-.03h-.31s-.07.29-.07.29c-.04.17-.04.49.34.68l.47.23c.23.11.46.22.69.34.94.48,1.97.87,3.06,1.17,1.04.29,2.03.51,3.01.68.95.16,1.93.4,2.91.71.14.04.27.09.41.14-.85.05-1.71.11-2.56.13-2.53.07-4.87-.54-6.96-1.79-1.62-.96-2.8-2.29-3.63-4.11.34.05.71.07,1.13.04,1.24-.07,2.5-.06,3.72-.04Z"/>
      <path class="cls-1" d="m289.57,94.28c-2.47-4.67-5.4-9.48-8.99-14.72l-1.82-2.39c-11.85-15.34-26.12-28.06-42.42-37.81-11.39-6.7-23.49-11.85-35.96-15.31-13.3-3.31-26.83-4.83-40.16-4.5-9.96-.07-19.83.74-29.35,2.43.41-.57.79-1.16,1.17-1.73.25-.38.49-.76.75-1.13.88-1.29,1.7-2.19,2.58-2.84.56-.41,1.17-.66,1.81-.92.2-.08.4-.16.61-.25-.1.35-.17.71-.21,1.07-.09.79-.01,1.49.25,2.14.35.89,1.08,1.63,1.95,1.97.85.34,1.78.29,2.67-.13,1.23-.58,2.08-1.52,2.52-2.78.06-.17.11-.35.17-.53l.37.22c.31.18.62.36.94.53,1.05.55,2.07.86,3.13.94,1.07.09,2-.08,2.83-.5,1.35-.68,2.05-2.04,1.84-3.54-.14-1.01-.61-1.9-1.39-2.63-.75-.7-1.65-1.21-2.77-1.56-.54-.17-1.08-.27-1.61-.35.89-.82,1.67-1.82,2.36-3.02.5-.88.8-1.8.87-2.75.08-1.04-.17-1.98-.76-2.82-.59-.86-1.43-1.32-2.47-1.37-.64-.04-1.28.03-1.89.2-1.38.38-2.36,1.22-2.9,2.5-.13.31-.24.62-.35.97l-.29-.43c-.27-.4-.54-.8-.82-1.2-.34-.47-.77-.9-1.28-1.27-.38-.27-.7-.43-1.05-.53-1.07-.29-1.87.15-2.18,1.2-.05.17-.08.33-.09.48-.01.25-.02.52,0,.8.07,1.24.45,2.45,1.17,3.69.14.25.3.49.46.72-.33-.04-.65-.08-.98-.11-.95-.09-1.79-.05-2.58.1-1.02.2-1.9.62-2.64,1.23-.28.24-.51.47-.69.71-.4.53-.57,1.1-.48,1.64.09.54.43,1.02.97,1.39.25.17.55.32.88.45.83.32,1.74.52,2.96.64.42.04.83.05,1.24.03l-.62.24c-.84.32-1.71.65-2.5,1.17-1.96,1.32-3.36,3.18-4.35,4.65l-.37.55c-.57.83-1.16,1.69-1.65,2.59l-.31.06c-.21.04-.43.08-.65.12l-6.78,1.57c1.07-1,2.04-2.19,2.89-3.56.3-.49.58-1.07.85-1.77.8-2.12.9-4.42.32-7.05l-.18-.78c-.09-.39-.18-.77-.26-1.16-.12-.58-.35-1.03-.7-1.36l-.08-.08-.11-.02c-.69-.13-.98.39-1.14.68-.48.86-.95,1.72-1.41,2.59-.82,1.54-1.95,2.79-3.36,3.71-.16.1-.32.21-.48.31-.17.1-.33.21-.49.31l-.53.34c-.91.59-1.82,1.18-2.73,1.79-.18.12-.36.25-.55.4.05-.52.09-.99.1-1.45.09-3.6-1.35-6.36-4.29-8.22-1.03-.65-2.11-1.21-3.23-1.67l-.52-.22c-.44-.18-.89-.37-1.33-.54-.83-.32-1.62-.65-2.23-1.25-.11-.11-.24-.18-.34-.24-.29-.16-.61-.16-.87-.02-.26.15-.41.43-.42.76,0,.33.03.65.08,1,.25,1.83.8,3.58,1.39,5.35.47,1.4.98,2.62,1.57,3.74,1.16,2.2,2.31,4.41,3.46,6.61.46.88.8,1.85,1.04,2.97.26,1.18.21,2.12-.15,2.98-.03.06-.05.12-.07.2l-4.5,1.66-3.44,1.51-4.31,2.22c-.71.34-1.39.75-2.04,1.14l-6.35,3.78c-.9.55-1.77,1.16-2.62,1.74-.14.09-.27.19-.41.28.08-.21.15-.42.2-.64.23-.9.37-1.83.51-2.72.07-.45.14-.9.22-1.35.27-1.54.65-2.7,1.19-3.65.34-.6.79-1.08,1.27-1.58.29-.3.58-.61.87-.97.03.29.06.58.11.86.15.95.45,1.77.91,2.5.47.74,1.03,1.27,1.72,1.61,1.1.54,2.38.33,3.25-.53.6-.59.95-1.34,1.05-2.21.1-.83-.01-1.67-.34-2.57-.14-.38-.3-.74-.48-1.08.92.15,1.9.17,2.96.04.82-.1,1.57-.36,2.22-.77.72-.46,1.22-1.09,1.49-1.89.27-.82.16-1.6-.32-2.32-.29-.44-.65-.82-1.06-1.14-.93-.72-1.96-.95-3.07-.68-.21.05-.43.12-.66.2l.05-.14c.14-.41.28-.81.42-1.22.15-.46.22-.95.2-1.46,0-.26-.03-.6-.17-.95-.34-.86-1.06-1.19-1.93-.87-.14.05-.26.11-.36.18-.19.13-.37.25-.53.39-.78.65-1.38,1.49-1.84,2.56-.07.16-.13.33-.19.5-.11-.18-.21-.37-.32-.55-.41-.66-.84-1.2-1.32-1.63-.63-.56-1.33-.94-2.09-1.12-.28-.07-.56-.1-.82-.1-.57,0-1.02.18-1.33.5-.32.33-.47.8-.45,1.35.01.25.06.52.14.8.25.89.68,1.66,1.02,2.24.25.42.54.8.86,1.14-.06,0-.12.02-.18.02-.78.11-1.5.36-2.16.74-.56.32-.98.72-1.29,1.22-.42.67-.54,1.52-.34,2.27.2.73.68,1.32,1.41,1.7.36.19.75.33,1.14.4-.37.4-.73.83-1.02,1.3-1.25,2.01-1.75,4.28-2.06,6.03l-.11.62c-.23,1.32-.48,2.68-.47,4.03l-3.57,1.86c-.9.52-1.8,1.06-2.69,1.6-.3.18-.61.37-.91.55.03-.04.06-.08.08-.13,1.42-2.1,2.13-4.15,2.26-6.44.11-1.98-.11-3.87-.63-5.61-.71-2.32-1.56-4.28-2.59-5.98-1.5-2.47-3.21-4.75-4.53-6.46-.41-.53-.93-.89-1.44-1.24l-.1-.07c-.36-.25-.77-.23-1.03.04-.17.17-.28.43-.29.68,0,.17,0,.34.01.52,0,.16.02.31,0,.47-.25,2.89-1.1,5.63-2.52,8.15-1.14,2.02-2.15,4.26-3.07,6.85-1.31,3.68-1.15,7.3.49,10.76.26.55.53,1.1.81,1.64.61,1.16,1.39,2.44,2.64,3.38-6.15,4.85-12.03,10.37-17.51,16.42.16-.45.29-.92.39-1.41.59-2.69.45-5.33-.4-7.84-.4-1.19-.91-2.4-1.61-3.81-.36-.73-.71-1.46-1.06-2.18-.5-1.02-.99-2.04-1.5-3.06-.52-1.05-.68-2-.48-2.96.04-.22.05-.47.03-.71-.02-.24-.17-.45-.39-.57-.22-.12-.47-.13-.68-.02-.22.11-.39.27-.56.42-.27.24-.54.49-.8.74l-.76.7c-.68.62-1.39,1.26-1.96,2.03-1.8,2.41-2.92,5.09-3.33,7.96-.45,3.17-.18,6.57.82,10.41.78,2.96,2.1,5.73,3.43,8.27.28.54.63,1.03.97,1.51-2.66,3.43-5.21,7.01-7.6,10.65l.62.42c3.25-4.57,6.84-9.05,10.66-13.32.76.27,1.56.47,2.32.66l.51.13c1.4.36,3.25.74,5.17.48.41-.06.81-.16,1.2-.29-.06.28-.08.57-.06.87.04.68.33,1.25.82,1.66.5.41,1.19.6,1.84.52.48-.06.93-.25,1.36-.56.5-.36.93-.82,1.28-1.37,0,0,0,0,0,0,.14.31.31.62.51.9.46.66.87,1.13,1.33,1.51.19.16.37.28.56.38.42.21.84.25,1.21.12.37-.13.67-.43.86-.87.08-.19.15-.41.19-.65.12-.63.08-1.29-.14-1.96-.16-.51-.42-1.01-.77-1.54-.07-.1-.14-.2-.21-.3.1,0,.19,0,.29.01.96,0,1.79-.16,2.53-.52.16-.08.31-.17.47-.27.09-.05.17-.12.27-.22.55-.56.55-1.24,0-1.81-.17-.18-.38-.32-.67-.46-.38-.18-.78-.3-1.17-.34-.34-.04-.68-.07-1.02-.1.09-.1.19-.21.27-.32.59-.75.76-1.61.53-2.56-.1-.42-.27-.81-.5-1.18-.38-.61-.95-.96-1.66-1.04-.7-.07-1.35.09-1.94.48-.53.35-.98.83-1.33,1.41-.42.7-.73,1.39-.92,2.09-.18-.22-.36-.42-.56-.61-.56-.54-1.16-.91-1.82-1.12-.69-.22-1.38-.21-2.03.05-.97.38-1.56,1.26-1.52,2.3.02.63.23,1.24.63,1.84.4.59.91,1.09,1.57,1.52.15.09.29.18.46.28-.29.08-.57.18-.85.28-.53.19-1.03.37-1.57.42-.88.08-1.86-.03-3.07-.33-.36-.09-.71-.19-1.07-.29-.68-.19-1.39-.38-2.11-.52,5.06-5.52,10.54-10.7,16.32-15.39,1.14.93,2.35,1.76,3.6,2.47,1.01.58,2.03,1.13,3.04,1.69l1.81,1c.23.12.45.24.62.39.86.76,1.56,1.49,2.12,2.21,1.06,1.37,1.66,2.9,1.85,4.68.12,1.13.02,2.29-.07,3.42l-.07.93c-.1,1.25-.2,2.5-.27,3.76-.13,2.41.17,4.85.91,7.26.18.57.4,1.17.68,1.83.12.29.3.54.47.79l.11.16c.24.36.61.52,1,.41.39-.1.65-.36.74-.74.05-.21.09-.41.13-.62l.28-1.63c.36-2.04,1.09-3.92,2.18-5.58.37-.56.73-1.13,1.07-1.71.27-.46.53-.92.77-1.4.46-.91.62-1.92.5-3.09-.17-1.6-.73-3.12-1.65-4.54-.96-1.47-2.21-2.82-4.01-4.34.81.13,1.68.13,2.64,0,3.1-.44,5.35-1.98,6.69-4.59.11-.21.21-.43.31-.64.12-.26.24-.51.37-.76.26-.48.56-1.03.92-1.53.46-.64,1.06-.89,1.84-.78.27.04.54.07.81.09.34-.01.63-.15.78-.45.17-.35.05-.81-.32-1.05-.23-.15-.49-.32-.8-.37-.55-.08-1.07-.25-1.62-.43-.31-.1-.62-.2-.93-.29-.94-.25-2.07-.52-3.27-.52s-2.23.21-3.12.63c-.83.39-1.56.95-2.25,1.71-.22.24-.42.48-.63.73-.19.22-.37.44-.57.66-.74.83-1.57,1.68-2.57,2.3-2.17,1.34-4.43,1.48-6.7.4-2.15-1.02-4.22-2.16-6.17-3.41,5.84-4.66,12.01-8.87,18.33-12.54l5.03-3.01c.3-.18.59-.35.89-.53.54-.33,1.08-.65,1.62-.95l1.44-.74c.69.4,1.25.98,1.71,1.77.58,1,1.16,1.99,1.75,2.98.4.68.81,1.37,1.21,2.05.78,1.33,1.53,2.46,2.29,3.44,1.63,2.1,3.75,3.67,6.32,4.67,2.07.8,4.15,1.02,6.19.65.92-.17,1.83-.36,2.76-.56.3-.07.68-.15.98-.51l.16-.2c.43.24.87.46,1.34.68.45.21.95.39,1.53.35.31-.03.56-.16.7-.38.13-.2.15-.46.04-.74-.23-.62-.47-1.26-.8-1.85-1.39-2.5-2.96-5.13-5-7.42-2.65-2.96-5.34-5.06-8.23-6.43-2.15-1.02-4.46-1.57-6.88-1.64l8.34-3.71c.56-.26,1.15-.47,1.73-.67.33-.12.66-.24.98-.36l5.51-2.03c.75-.3,1.54-.53,2.31-.76l3.98-1.18c.19.16.42.31.68.47.68.4,1.35.76,2.02,1.08l-.3-.04-.09.31c-.16.55.02.99.18,1.36.45,1.1.91,2.2,1.4,3.29,1.08,2.39,2.81,4.4,5.14,5.99,2.89,1.97,6.06,3.06,9.44,3.25,1.58.09,3.3.06,5.27-.08,1.02-.08,2.04-.15,3.06-.22,1.46-.1,2.92-.2,4.38-.32,1.5-.12,2.75.16,3.81.86.23.15.51.28.8.36.26.07.55,0,.77-.17.22-.18.34-.45.32-.71-.03-.3-.13-.58-.22-.84-.17-.45-.34-.91-.51-1.36l-.44-1.18c-.41-1.1-.83-2.24-1.46-3.28-1.99-3.27-4.62-5.86-7.8-7.71-3.52-2.04-7.67-3.34-12.69-3.98-.6-.08-1.21-.14-1.84-.18l.64-.16c1.66-.32,3.33-.61,4.99-.9.92-.16,1.85-.32,2.77-.49l1.92-.34,5.88-.65c.47-.05.94-.1,1.42-.16.83-.09,1.67-.19,2.49-.26l3.95-.18c2.33-.14,4.76-.22,7.23-.23-.03.15,0,.34.11.59.03.07.06.14.13.28.32.64.46,1.35.4,2.1l-.03.49c-.02.25-.03.5-.05.76-.11,1.19.08,2.42.55,3.47.69,1.64,1.62,2.84,2.92,3.79,1.12.82,2.31,1.42,3.53,1.77,1.62.47,3.09.72,4.48.77,2.01.06,3.98-.06,5.47-.18.48-.04.89-.21,1.37-.41.33-.14.51-.43.44-.74-.04-.18-.17-.38-.33-.5-.1-.07-.21-.14-.32-.2-.09-.05-.18-.1-.26-.16-1.57-1.23-2.82-2.75-3.73-4.51-.74-1.43-1.66-2.87-2.82-4.39-.88-1.16-1.92-2.06-3.1-2.71,5.18.29,10.39.85,15.52,1.68,13.68,1.92,27.04,5.74,39.66,11.34,11.75,6.32,22.59,14.19,32.22,23.4,16.51,13.91,30.04,31.58,39.14,51.1l.69-.3c-2.12-5.29-4.55-10.52-7.22-15.55ZM173.02,29.02c.37.64.72,1.29,1.08,1.95l.23.42c.34.63.72,1.18,1.13,1.66-.2-.08-.41-.17-.62-.27-2.03-.96-3.69-2.14-5.08-3.61-.71-.76-1.47-1.6-2.31-2.58-.94-1.09-2.23-2.47-3.88-3.52-.13-.08-.26-.16-.39-.24,1.86-.17,3.68.18,5.42,1.04.82.41,1.56,1.03,2.25,1.9h0c.74.92,1.43,1.96,2.17,3.25Zm-9.99-4.58c1.34.82,2.47,1.82,3.37,2.97.36.46.73.92,1.1,1.36,1.56,1.86,3.54,3.4,5.89,4.6.82.42,1.63.83,2.47,1.18-1.5.08-2.89.06-4.23-.06-1.43-.13-2.85-.47-4.22-1-2-.78-3.3-2.15-4-4.2-.25-.72-.35-1.41-.33-2.12.03-.84.06-1.76-.05-2.74Zm-42.13,6.21c1.28.57,2.56,1.01,3.87,1.31.87.2,1.75.39,2.63.55,6.02,1.11,10.88,2.51,15.29,4.38.54.23,1.09.41,1.61.57.19.06.38.05.54.05.06,0,.12,0,.17,0h.32s.07-.29.07-.29c.14-.67-.35-.91-.51-.99l-1.02-.5c-.49-.24-.99-.48-1.47-.73-1.99-1.01-4.18-1.85-6.5-2.5-2.24-.62-4.35-1.1-6.44-1.45-2.06-.35-4.19-.87-6.32-1.54-.85-.27-1.69-.62-2.5-1.04.55-.03,1.1-.07,1.65-.1,1.84-.12,3.74-.23,5.6-.28,5.51-.15,10.64,1.19,15.21,3.92,3.82,2.28,6.54,5.5,8.31,9.82-.7-.19-1.45-.29-2.32-.29-.26,0-.53,0-.82.03-2.68.16-5.4.12-8.04.08h-.93c-1.62-.04-3.22-.13-4.74-.29-2.4-.25-4.71-1.04-7.07-2.4-2.41-1.4-4.2-3.34-5.33-5.79-.33-.71-.67-1.41-1.05-2.18-.04-.09-.1-.23-.22-.35Zm-11.88-6.91l-.12.25c-.26-1.39-.84-2.67-1.43-3.86-.82-1.68-1.67-3.35-2.51-5.02l-1.07-2.11c-.61-1.2-1.22-2.94-1.54-4.29.5.27.96.52,1.43.75.34.17.68.32,1.02.48.33.15.65.3.98.46.3.15.58.32.87.49l.29.17c1.72,1.01,2.83,2.58,3.29,4.67.14.65.25,1.36.32,2.23.1,1.19-.04,2.28-.42,3.24-.34.85-.72,1.71-1.1,2.54Zm12.23-2.77c-1.12,1.54-2.59,2.81-4.37,3.76-1.14.61-2.37,1.06-3.63,1.51-.31.11-.62.22-.94.32-.8.27-1.63.56-2.41.9l-.3.11.21-.45c.45-.96.92-1.94,1.43-2.88.46-.86,1-1.7,1.52-2.52l.21-.33c.47-.74,1.11-1.37,1.88-1.88l.85-.56c.78-.52,1.59-1.05,2.41-1.52,1.89-1.07,3.34-2.6,4.33-4.56.37,1.52.47,2.96.29,4.4-.16,1.3-.66,2.54-1.49,3.68Zm21.13-15.85c.09.16.2.34.34.5.34.41.71.43.86.42.18-.01.52-.09.79-.51.09-.14.15-.29.22-.46l.3-.75c.11-.27.21-.54.32-.81.34-.85.94-1.36,1.86-1.61.46-.12.85-.21,1.24-.23.68-.02,1.13.23,1.48.81.3.48.4,1.06.31,1.76-.07.58-.27,1.15-.61,1.76-.64,1.14-1.44,2.09-2.38,2.82-.11.09-.23.18-.41.31l-.4.3c-.12.09-.25.19-.37.33-.23.28-.32.62-.23.94.08.32.33.58.67.71.15.06.31.09.53.14l.84.17c.88.12,1.72.38,2.52.79.53.27.93.56,1.25.89.41.43.63.9.68,1.42.08.78-.29,1.39-1.01,1.66-.51.2-1.1.25-1.84.15-.84-.11-1.62-.38-2.31-.82-.33-.21-.66-.44-.98-.66l-.6-.42c-.13-.09-.27-.19-.42-.27-.29-.15-.6-.17-.88-.08-.28.09-.51.3-.65.58-.1.19-.14.38-.19.62-.03.13-.06.27-.09.44-.04.19-.08.37-.13.55-.2.69-.63,1.25-1.28,1.66-.08.05-.17.1-.28.15-.41.18-.81.18-1.15.02-.36-.18-.64-.52-.74-.92-.11-.4-.12-.84-.06-1.34.06-.46.2-.89.41-1.29.24-.44.52-.96.85-1.44.28-.41.58-.81.88-1.21l.46-.63c.07-.09.18-.24.23-.42.07-.23.04-.5-.08-.71-.14-.24-.39-.38-.68-.38-.11,0-.22.02-.33.07-.19.08-.36.18-.5.31-1.09.98-2.45,1.37-4.28,1.22-.9-.07-1.69-.25-2.41-.56-.27-.11-.46-.23-.59-.38-.18-.19-.18-.26-.05-.44.08-.12.19-.23.34-.37.43-.38.94-.64,1.56-.82.65-.18,1.34-.26,2.06-.23.6.03,1.21.06,1.81.1l1.02.06c.17,0,.35.02.53,0,.38-.04.68-.22.84-.52.16-.29.14-.66-.04-1-.07-.14-.16-.26-.26-.41l-.39-.57c-.22-.32-.44-.64-.65-.97-.33-.53-.59-1.14-.77-1.81-.13-.48-.19-.91-.18-1.33,0-.18.02-.35.06-.48.02-.08.04-.1.04-.11,0,0,.04,0,.12,0,.12.02.25.07.4.14.28.14.53.34.74.61.32.41.63.86.94,1.33.16.25.3.5.45.76l.27.47Zm-51.92,34.74h.1s-.05.08-.08.09l-.03-.09Zm8.06,10.57c-.77-.91-1.54-1.89-2.28-2.92l-.44-.62c-1.19-1.68-2.42-3.41-3.5-5.2-.46-.77-.93-1.36-1.45-1.82,3.5-.73,6.71-.4,9.81,1.02,3.77,1.73,6.89,4.43,9.25,8.03.8,1.22,1.57,2.5,2.31,3.73.17.29.34.57.52.86-.53-.3-1.04-.63-1.51-1-1.38-1.07-2.66-2.21-3.79-3.38-1.16-1.2-2.41-2.34-3.8-3.51-1.45-1.21-2.97-2.25-4.51-3.09-.38-.21-.76-.42-1.13-.63l-.77-.43c-.37-.2-.69-.16-.96.13l-.22.23.27.36c.07.11.16.24.29.34.32.25.69.54,1.09.79,3.17,2.01,6.22,4.52,9.61,7.9.5.5,1.01.98,1.53,1.45.72.65,1.49,1.24,2.34,1.77-.04,0-.08.01-.12.02-.61.09-1.21.18-1.82.28-2.09.36-4.07.08-6.05-.86-1.92-.91-3.44-2.04-4.66-3.47Zm-12.54-31.23c.03-.18.06-.18.2-.19.09,0,.21.01.38.04.44.09.85.29,1.25.6.42.32.8.73,1.12,1.2.25.37.5.74.74,1.12l.52.79c.08.12.16.24.26.35.23.25.51.37.8.32.29-.04.54-.24.68-.55.05-.11.09-.24.14-.38l.17-.5c.1-.3.21-.61.32-.91.18-.46.45-.92.79-1.35.24-.3.49-.55.76-.74.11-.08.22-.14.38-.16.04.08.07.18.1.3.05.24.03.49-.03.73-.11.4-.25.81-.4,1.24-.08.22-.18.44-.3.71l-.15.34c-.06.16-.13.31-.17.47-.1.43.06.7.16.81.12.15.35.32.77.29.14-.01.27-.04.41-.08l1.3-.35c.69-.18,1.28-.05,1.87.41.26.2.52.42.73.68.32.4.38.79.18,1.27-.16.41-.48.74-.96,1.01-.4.23-.86.37-1.4.44-1.05.14-2.01.08-2.93-.17l-.31-.09-.11.36h0v-.39s-.35-.11-.35-.11c-.12-.03-.26-.07-.41-.08-.32-.03-.6.1-.78.33-.18.23-.24.53-.15.84.04.13.09.25.17.42l.3.62c.34.62.58,1.28.7,1.98.08.46.09.86.03,1.21-.08.46-.27.81-.56,1.08-.44.4-.98.45-1.47.14-.36-.23-.67-.58-.96-1.09-.33-.58-.53-1.21-.58-1.86-.02-.32-.03-.63-.04-.95l-.02-.58c0-.14,0-.28-.03-.41-.02-.13-.06-.25-.13-.35l.78-1.09-1.29.66c-.16-.05-.32-.07-.5-.03-.18.03-.33.1-.5.18-.1.04-.2.09-.32.15-.14.07-.28.13-.42.19-.52.2-1.07.19-1.63-.02-.07-.03-.14-.06-.22-.11-.3-.17-.48-.4-.53-.68-.06-.29.03-.62.22-.86.2-.25.47-.47.81-.66.32-.18.66-.29,1.01-.35.37-.06.85-.12,1.33-.15.4-.02.8-.02,1.2-.02h.59s0-.38,0-.38h0l.04.37c.1,0,.25,0,.41-.06.2-.07.38-.24.46-.43.14-.33.01-.7-.31-.89-.15-.09-.31-.15-.46-.18-1.13-.23-2.02-.91-2.8-2.14-.39-.61-.64-1.2-.79-1.8-.05-.22-.07-.39-.04-.54Zm-18.3,23.35c.27-.8.53-1.6.78-2.4,1.01-3.33,1.31-6.92.91-10.7-.17-1.57-.35-3.11-.66-4.62,1.49,1.97,2.7,3.86,3.71,5.77.98,1.84,1.69,3.84,2.14,5.94.64,3.04-.02,5.83-1.95,8.3-.69.88-1.46,1.57-2.35,2.11-1.11.67-2.35,1.42-3.51,2.43-.11-2.45.19-4.68.93-6.83Zm-2.66,7.73c0,.11,0,.23.01.34-1.88-2.21-3.02-4.85-3.37-7.85-.16-1.34.02-2.74.53-4.3.54-1.63,1.24-3.29,2.22-5.22.49-.96,1-1.91,1.51-2.85l.33-.6c.6-1.12,1.02-2.19,1.27-3.3.14.5.24,1.04.33,1.63.45,3.23.33,6.19-.36,9.06-.36,1.48-.78,3.06-1.29,4.84-.57,1.99-1.22,4.62-1.19,7.43,0,.27.01.54.02.82Zm-23.78,25.32s0,0,0,0c0,0,0,0,0,0h0Zm-.49-6.08c-.95-4.69-1.36-8.62-1.29-12.37,0-.47-.03-.94-.06-1.34-.01-.17-.07-.31-.13-.43l-.15-.42-.31.05c-.39.07-.61.31-.64.73l-.07.89c-.03.43-.06.85-.1,1.28-.15,1.75-.12,3.59.09,5.46.2,1.81.48,3.48.83,5.11.35,1.6.59,3.29.73,5.03.01.16.02.32.03.48l-.8-.3c-.51-1.07-1.02-2.17-1.49-3.26-1.7-3.96-2.23-8.05-1.59-12.15.53-3.38,2.02-6.24,4.56-8.75.1.69.33,1.41.71,2.21.89,1.88,1.66,3.87,2.4,5.79l.27.71c.46,1.19.86,2.37,1.18,3.51.52,1.81.62,3.7.32,5.8-.31,2.17-1.17,3.98-2.62,5.52-.42.45-.83.9-1.27,1.4-.02.02-.03.03-.05.05.02-1.01-.04-1.98-.18-2.94-.11-.69-.23-1.39-.37-2.08Zm-1.72,4.49l.66.44c0,.29-.01.58-.04.87-.15-.31-.29-.61-.44-.92-.06-.13-.12-.26-.19-.39Zm33-10.29c.55-.12,1.11-.24,1.66-.41.96-.29,1.84-.8,2.61-1.52.59-.55,1.17-1.12,1.74-1.69l.38-.38c.15-.15.29-.3.43-.45.17-.19.35-.37.53-.55.87-.82,1.83-1.26,2.96-1.36,1.22-.1,2.41.04,3.76.31-.74.76-1.24,1.63-1.59,2.32-.33.64-.73,1.39-1.2,2.05-.99,1.4-2.37,2.29-4.21,2.72-1.97.47-4.04.35-6.5-.39-.33-.1-.74-.3-1.11-.54l.54-.12Zm2.39,17.07c.07-1.5.18-3.01.29-4.51l.08-1.13c.08-1.21.14-2.64-.06-4.07-.21-1.48-.64-2.78-1.33-3.96,1.72,1.09,3.25,2.51,4.63,4.32.51.66.94,1.39,1.29,2.16.4.9.59,1.88.57,2.98,0,.47-.13.91-.36,1.32-.28.49-.57.96-.86,1.44l-.12.19c-.18.29-.36.58-.54.87-.36.58-.72,1.15-1.05,1.75-.93,1.68-1.44,3.3-1.53,4.95-.11-.26-.21-.51-.29-.78-.57-1.84-.81-3.71-.73-5.54Zm-22.41-9.95c.29-.12.59-.14.94-.05.28.07.56.2.86.41.47.32.88.71,1.23,1.18l.37.44c.07.08.15.17.23.24.22.18.49.25.73.18.25-.06.45-.25.55-.51.05-.12.07-.24.09-.37l.04-.3c.01-.11.03-.22.05-.33.12-.76.39-1.48.84-2.2.23-.37.48-.66.78-.87.35-.26.68-.39,1.02-.36.39.02.65.18.82.52.11.22.18.46.25.75.14.57.04,1.03-.3,1.46l-.71.86c-.07.08-.13.17-.19.27-.18.34-.1.6-.04.73.06.13.22.36.6.43.14.02.27.03.42.04h.35c.19,0,.38,0,.57.02.37.02.72.06,1.05.11.19.03.37.1.52.2.07.05.12.09.16.13-.06.05-.12.1-.2.14-.23.13-.48.23-.78.31-.44.11-.86.15-1.24.13-.25-.01-.51-.04-.77-.06l-.49-.05c-.09,0-.18-.02-.28-.02-.3,0-.55.13-.69.35-.14.22-.16.5-.04.77.05.12.11.22.21.36l.34.54c.21.33.42.65.62.98.24.39.41.8.51,1.21.09.39.1.75.02,1.09-.02.12-.05.21-.12.34,0,0-.03,0-.09-.01-.11-.03-.22-.09-.36-.2-.39-.3-.73-.68-1.05-1.16-.64-.97-.84-1.83-.64-2.72.03-.13.04-.27.02-.43-.04-.33-.3-.58-.64-.58-.19,0-.39.08-.52.22-.1.1-.15.21-.2.33l-.19.43c-.13.29-.27.6-.42.89-.17.34-.37.66-.55.93-.15.24-.34.44-.58.61-.25.19-.49.31-.74.37-.22.06-.47.02-.65-.11-.17-.12-.28-.31-.3-.57,0-.06,0-.13,0-.19.03-.47.2-.86.5-1.17.08-.09.17-.16.33-.3l.18-.16c.09-.08.2-.17.29-.3.08-.12.13-.25.15-.39l1.09-.93-1.27.29c-.06-.07-.12-.13-.2-.18-.1-.07-.21-.12-.31-.17l-.47-.23c-.22-.11-.43-.21-.65-.33-.45-.25-.85-.59-1.16-1.02-.28-.38-.43-.71-.47-1.04-.06-.44.13-.79.55-.97Zm4.59,1.76h0s0,0,0,0Zm97.55-28.31h0s0,0,0,0h0Z"/>
      <path class="cls-1" d="m19.61,45.22c-.29,0-.6.02-.9.07-.56.1-1.1.25-1.63.4-.26.07-.53.15-.79.21-.89.22-1.61.3-2.25.24-.39-.04-.76-.17-1.14-.3-.18-.06-.35-.12-.54-.18.08-.05.15-.09.22-.14.48-.32.87-.7,1.17-1.13.3-.45.45-.9.47-1.37.03-.78-.41-1.43-1.13-1.71-.49-.19-.99-.2-1.51-.04-.49.15-.93.43-1.35.83-.14.14-.27.28-.4.44-.15-.51-.37-1.01-.68-1.53-.26-.43-.59-.79-.99-1.05-.44-.29-.93-.41-1.44-.36-.53.05-.96.32-1.24.77-.17.27-.3.57-.37.88-.17.71-.04,1.35.4,1.91.06.08.12.15.19.22-.25.02-.49.04-.74.07-.29.03-.58.12-.87.25-.15.07-.33.17-.5.34-.42.43-.42.93,0,1.35.07.07.13.12.2.17.11.07.23.14.35.2.53.26,1.12.38,1.79.38.09,0,.18,0,.28,0-.05.07-.1.14-.14.2-.27.39-.45.76-.58,1.14-.16.49-.19.98-.1,1.46.03.18.08.34.15.48.18.41.45.58.64.65.09.03.2.06.33.06.16,0,.35-.04.57-.15.14-.07.28-.17.42-.28.43-.36.75-.79.99-1.12.15-.21.27-.43.37-.65.26.4.58.74.95,1.01.32.23.66.37,1.01.42.49.06,1-.08,1.38-.39.36-.3.58-.73.61-1.24.01-.18,0-.36-.02-.53.27.09.55.16.84.2.33.04.66.06.98.06,1.08,0,2.09-.21,2.89-.42l.39-.1c1.09-.27,2.22-.55,3.17-1.19l2.62-1.75-2.96,1.09c-.32.12-.69.13-1.09.14Zm-11.09.16c-.25,0-.44.19-.48.45-.01.11,0,.22.01.32.15.66,0,1.3-.47,2.01-.24.36-.49.64-.78.86-.1.08-.18.12-.33.12-.03-.05-.05-.12-.07-.21-.05-.25-.05-.52.02-.81.07-.3.2-.61.37-.89.15-.25.31-.49.46-.73l.27-.42c.05-.08.1-.16.14-.25.09-.2.08-.41-.03-.58-.11-.17-.3-.26-.52-.27h-.02c-.08,0-.16,0-.3.02l-.26.02c-.19.02-.38.04-.56.04-.29.02-.6-.02-.92-.1-.22-.05-.41-.13-.57-.22-.07-.04-.13-.09-.17-.07.03-.04.07-.08.13-.12.11-.08.24-.13.38-.15.26-.04.52-.07.78-.08.14,0,.28-.01.42-.01h.26c.1,0,.21-.01.31-.03.21-.04.37-.15.45-.32.08-.17.07-.36-.03-.55-.04-.07-.09-.13-.15-.22l-.51-.63c-.25-.32-.32-.66-.22-1.07.05-.22.11-.39.19-.55.13-.25.31-.37.6-.38.27-.01.49.07.75.26.21.16.4.37.57.64.33.53.53,1.06.62,1.63l.07.47c.01.08.02.17.06.27.08.2.23.34.42.38.19.05.39,0,.55-.14.07-.05.12-.12.2-.21l.27-.32c.25-.33.55-.62.9-.86.23-.15.43-.25.64-.3.26-.06.48-.05.69.04.3.13.45.38.4.7-.04.25-.15.49-.35.77-.23.32-.52.57-.86.75-.17.09-.34.17-.51.26l-.31.15c-.08.04-.16.08-.23.12-.03.02-.04.05-.07.07l-1.46-.33,1.29,1.05s.03.09.06.13c.07.1.14.17.23.25l.15.13c.07.06.14.12.21.19.23.23.35.51.37.86,0,.05,0,.09,0,.14-.02.19-.09.33-.22.41-.13.09-.31.12-.47.08-.18-.05-.36-.13-.54-.27-.17-.13-.31-.28-.42-.45-.14-.22-.28-.45-.41-.69-.11-.21-.2-.43-.3-.65l-.16-.35c-.03-.06-.07-.15-.14-.23-.1-.1-.25-.17-.4-.17Z"/>
    </g>
    <g>
      <path class="cls-1" d="m293.15,246.66c-.4-.56-.88-1.05-1.36-1.54,0,0,0,0-.01-.01,3.55-6.33,6.65-12.91,9.23-19.57l-.69-.29c-5.31,12.11-12.16,23.48-20.37,33.79-2.07,2.58-4.31,5.19-6.69,7.77-1.16-.67-2.33-1.24-3.48-1.69-1.08-.43-2.16-.83-3.24-1.24l-1.95-.73c-.24-.09-.48-.17-.66-.29-.98-.64-1.74-1.24-2.41-1.89-1.24-1.2-2.06-2.63-2.49-4.37-.28-1.11-.35-2.22-.42-3.4l-.06-.94c-.08-1.24-.16-2.49-.26-3.73-.21-2.41-.86-4.78-1.93-7.06-.25-.54-.56-1.11-.94-1.72-.16-.27-.37-.49-.57-.7l-.14-.15c-.29-.32-.67-.42-1.05-.27-.37.15-.6.45-.63.84-.02.21-.03.42-.04.63l-.05,1.65c-.07,2.07-.53,4.03-1.37,5.83-.29.61-.56,1.22-.82,1.84-.21.49-.4.99-.57,1.49-.32.97-.34,1.99-.05,3.13.39,1.56,1.16,2.99,2.28,4.26,1.16,1.32,2.59,2.48,4.58,3.73-.85,0-1.69.11-2.61.38-3,.87-5.01,2.72-5.97,5.49-.08.22-.15.45-.21.68-.08.27-.16.54-.26.81-.22.6-.43,1.13-.69,1.64-.36.7-.92,1.03-1.71,1.04-.27,0-.55,0-.82.03-.34.03-.6.24-.71.56-.12.37.07.8.47.99.25.12.54.25.85.25.55,0,1.09.1,1.66.2.32.06.64.11.96.15.97.12,2.12.22,3.31.05,1.19-.17,2.17-.52,3-1.06.76-.5,1.41-1.16,1.99-2.01.18-.26.35-.54.52-.81.15-.25.31-.49.47-.73.62-.92,1.32-1.88,2.22-2.64,1.96-1.64,4.17-2.09,6.58-1.34,2.09.65,4.14,1.42,6.12,2.29-6.25,6.65-13.09,12.73-20.36,18.1-1.29,1.04-2.68,2.11-4.25,3.29-.51-.3-.96-.71-1.37-1.24-.7-.88-1.4-1.76-2.1-2.64-.51-.64-1.03-1.28-1.54-1.92-.96-1.21-1.86-2.22-2.76-3.09-1.91-1.85-4.24-3.1-6.92-3.72-2.16-.5-4.25-.42-6.22.23-.89.29-1.76.62-2.65.95-.29.11-.66.24-.9.65l-.13.22c-.46-.17-.93-.33-1.42-.48-.48-.14-.99-.26-1.56-.13-.31.07-.53.24-.64.47-.1.22-.08.47.06.72.32.59.65,1.19,1.07,1.74,1.73,2.28,3.65,4.66,6,6.64,3.04,2.55,6,4.25,9.06,5.2,1.91.59,3.89.84,5.91.74-6.55,4.4-13.48,8.29-20.62,11.58-.12-.06-.25-.12-.38-.17-.73-.3-1.44-.56-2.15-.79h.3l.04-.32c.08-.57-.16-.98-.37-1.33-.6-1.03-1.21-2.05-1.85-3.06-1.41-2.21-3.4-3.96-5.93-5.2-3.14-1.54-6.43-2.17-9.8-1.88-1.58.14-3.28.41-5.21.83-1.01.22-2.02.44-3.03.65-1.42.3-2.84.61-4.25.92-1.47.33-2.74.23-3.89-.31-.25-.12-.54-.2-.85-.25-.27-.04-.54.07-.74.28-.19.21-.27.49-.21.75.07.29.21.55.34.79.22.41.45.82.67,1.22.2.37.41.74.63,1.14.56,1.03,1.14,2.1,1.91,3.04,2.43,2.95,5.4,5.15,8.81,6.53,3.78,1.52,8.06,2.21,13.13,2.15.17,0,.35,0,.53-.01-2.15.76-4.26,1.46-6.32,2.08-7.4,2.37-15.11,4.16-22.91,5.34-.04-.12-.1-.22-.14-.3-.04-.07-.09-.14-.17-.26-.41-.6-.64-1.27-.69-2.03l-.04-.5c-.02-.25-.04-.5-.05-.75-.06-1.19-.42-2.39-1.03-3.36-.91-1.52-2-2.58-3.42-3.34-1.22-.65-2.48-1.08-3.74-1.25-1.67-.24-3.16-.28-4.54-.12-1.99.22-3.92.62-5.39.95-.47.11-.86.33-1.3.6-.31.18-.44.5-.33.8.07.18.22.35.39.44.11.06.23.11.34.15.1.04.19.07.28.12,1.73.99,3.18,2.32,4.33,3.93.93,1.31,2.05,2.6,3.41,3.94.89.88,1.87,1.56,2.94,2.04-14.57,1.28-29.09.44-43.21-2.5-16.46-3.05-32.21-8.83-46.78-17.17-13.44-9.12-25.2-20.22-34.97-33.01-17.22-19.82-28.88-43.96-33.71-69.81l-.74.12c.92,6.87,2.28,13.72,4.05,20.35,1.72,6.37,4.03,13,6.87,19.73l1.6,3.25c.45.98.96,1.94,1.46,2.87l.53.99c.24.44.48.89.71,1.34.44.83.87,1.66,1.35,2.47.42.7.83,1.4,1.25,2.11,1.03,1.75,2.09,3.57,3.25,5.27,3.2,5.1,6.93,9.95,10.17,14.02l3.3,3.88c.3.36.6.71.92,1.07l4.43,4.76,4.63,4.57,4.82,4.38,5,4.17,1.72,1.32c6.5,4.93,13.21,9.25,19.96,12.86,6.96,3.73,14.28,6.95,21.74,9.57,15.83,5.07,32.12,7.48,48.39,7.2,6.72.16,13.42-.11,19.91-.79,6.61-.73,13.23-1.89,19.65-3.44.22-.05.45-.11.67-.17-.7.67-1.15,1.51-1.35,2.5-.04.18-.06.36-.09.55l-.39-.16c-.33-.14-.67-.27-1-.39-1.11-.4-2.16-.56-3.23-.49-1.07.07-1.96.36-2.73.89-1.24.87-1.74,2.31-1.32,3.76.28.98.87,1.8,1.74,2.41.84.59,1.81.97,2.96,1.15.52.08,1.03.11,1.64.12-.77.94-1.39,2.04-1.91,3.33-.37.94-.53,1.9-.47,2.84.06,1.03.45,1.94,1.15,2.69.63.68,1.41,1.02,2.32,1.02.11,0,.21,0,.33-.02.64-.06,1.26-.21,1.85-.47,1.32-.57,2.16-1.54,2.52-2.88.09-.34.15-.68.21-1.01.1.11.21.23.32.36.33.37.67.74,1.01,1.1.4.42.89.79,1.44,1.07.42.21.76.33,1.11.37,1.1.15,1.83-.4,2-1.5.03-.18.03-.34.02-.48-.03-.26-.05-.53-.11-.8-.25-1.22-.79-2.36-1.68-3.49-.18-.22-.36-.43-.55-.64.33,0,.66-.02.98-.03.95-.05,1.78-.2,2.54-.47.98-.34,1.8-.88,2.44-1.59.25-.28.44-.54.58-.8.33-.58.41-1.17.24-1.69-.16-.52-.57-.95-1.16-1.24-.27-.13-.59-.24-.94-.32-1.1-.25-2.2-.25-3.02-.22-.42.02-.83.06-1.23.14l.58-.32c.79-.43,1.61-.88,2.31-1.51,1.75-1.58,2.87-3.62,3.65-5.22l.27-.55c.38-.78.78-1.58,1.11-2.41l.46-.17c.69-.25,1.38-.5,2.06-.77,1.49-.57,3.07-1.22,4.79-1.95-.8,1.06-1.5,2.25-2.07,3.54-.23.53-.42,1.13-.59,1.87-.49,2.21-.27,4.5.68,7.02l.29.75c.14.37.29.74.42,1.11.21.56.49.97.88,1.25l.09.07h.12c.73-.02.91-.52,1.03-.83.35-.92.69-1.84,1.03-2.77.59-1.65,1.53-3.04,2.8-4.15.14-.12.29-.25.43-.37.15-.13.3-.25.45-.38l.62-.54c.77-.67,1.54-1.34,2.3-2.03.16-.15.32-.3.48-.47.03.52.05.99.11,1.45.42,3.57,2.23,6.11,5.41,7.53,1.11.5,2.26.9,3.44,1.19l.58.15c.45.12.91.23,1.36.34.87.2,1.7.42,2.39.93.12.09.26.14.37.19.31.12.63.08.86-.11.24-.19.35-.48.31-.82-.04-.33-.13-.65-.22-.98-.5-1.77-1.29-3.42-2.13-5.1-.66-1.32-1.34-2.46-2.08-3.48-1.46-2.01-2.91-4.03-4.36-6.05-.58-.8-1.05-1.72-1.45-2.8-.42-1.13-.51-2.07-.28-2.97,0-.03.01-.05.02-.09,6.16-3.84,12.06-8.14,17.51-12.75,1.39-.92,2.8-1.88,4.21-2.88-.04.2-.08.41-.1.62-.1.92-.11,1.86-.12,2.76,0,.46,0,.91-.03,1.37-.05,1.56-.26,2.76-.66,3.79-.25.64-.63,1.18-1.04,1.74-.24.34-.49.68-.72,1.08v-.06c-.08-.26-.15-.52-.23-.78-.28-.92-.69-1.68-1.25-2.35-.57-.67-1.2-1.11-1.92-1.35-1.18-.39-2.39,0-3.15.99-.51.67-.75,1.46-.73,2.33.02.84.25,1.65.7,2.5.19.35.41.69.63,1-.93-.03-1.9.1-2.94.38-.79.21-1.5.58-2.09,1.08-.65.55-1.05,1.25-1.2,2.08-.15.85.06,1.61.64,2.25.35.39.76.72,1.21.98,1.02.58,2.08.66,3.14.24.21-.08.41-.18.63-.29l-.03.16c-.08.42-.16.84-.24,1.26-.08.47-.08.97,0,1.47.06.38.16.67.3.92.38.67.88.81,1.23.81.25,0,.52-.08.8-.22.14-.07.25-.15.33-.23.16-.14.32-.3.47-.46.68-.75,1.15-1.67,1.45-2.79.04-.17.08-.34.12-.52.13.17.26.33.4.49.5.6,1,1.06,1.54,1.42.7.47,1.45.75,2.23.81.29.03.57.02.81,0,.55-.08.99-.31,1.26-.69.27-.38.36-.86.25-1.4-.05-.25-.13-.51-.25-.77-.29-.66-.7-1.3-1.32-2.07-.3-.38-.64-.71-1.01-1,.06-.02.12-.03.17-.05.75-.22,1.44-.57,2.03-1.04.51-.4.87-.85,1.1-1.39.32-.72.32-1.58.02-2.29-.3-.7-.87-1.21-1.64-1.48-.39-.14-.78-.22-1.18-.24.31-.44.6-.92.83-1.44.95-2.17,1.13-4.48,1.18-6.26l.02-.66c.04-1.26.09-2.57-.07-3.84,2.18-1.59,4.32-3.23,6.38-4.91-1.06,2.24-1.46,4.33-1.26,6.57.17,1.98.65,3.82,1.42,5.46,1.03,2.2,2.14,4.01,3.41,5.56,1.84,2.24,3.85,4.25,5.4,5.75.48.47,1.05.75,1.6,1.02l.1.05c.39.2.79.12,1.02-.18.14-.19.21-.46.19-.71-.01-.17-.05-.34-.08-.51-.03-.15-.07-.31-.07-.46-.16-2.9.29-5.73,1.35-8.42.85-2.16,1.52-4.52,2.07-7.21.78-3.83.1-7.39-2-10.58-.34-.51-.68-1.01-1.04-1.51-.78-1.08-1.76-2.26-3.16-3.01,5.56-5.98,10.65-12.43,15.21-19.26-.15.65-.26,1.32-.31,2.01-.2,2.75.31,5.34,1.51,7.71.57,1.12,1.24,2.25,2.13,3.55.45.66.9,1.33,1.35,1.99.64.95,1.28,1.9,1.93,2.84.67.97.95,1.88.9,2.86-.01.22.01.47.07.71.06.23.23.42.47.51.23.09.49.06.68-.07.2-.14.35-.32.49-.49.24-.29.48-.59.73-.88l.62-.76c.59-.71,1.2-1.44,1.65-2.29,1.44-2.64,2.17-5.45,2.17-8.35,0-3.2-.75-6.53-2.28-10.19-1.19-2.83-2.89-5.37-4.56-7.7Zm-29.67,36.59c.56-.97,1.22-1.76,2.03-2.42,1-.82,2.12-1.74,3.13-2.9.45,2.38.47,4.69.05,6.89-.16.83-.3,1.66-.43,2.49-.53,3.44-.32,7.04.61,10.72.41,1.59.79,3.04,1.3,4.48-1.75-1.74-3.22-3.44-4.49-5.19-1.23-1.69-2.22-3.56-2.95-5.58-1.06-2.91-.81-5.77.76-8.49Zm7.64,17.43c-.21-.48-.39-.99-.55-1.57-.9-3.13-1.2-6.08-.92-9.02.14-1.5.33-3.12.59-4.98.29-2.04.56-4.75.13-7.53-.04-.27-.09-.54-.14-.81-.02-.11-.04-.22-.06-.33,2.18,1.92,3.67,4.38,4.45,7.29.34,1.3.37,2.72.08,4.33-.3,1.69-.77,3.43-1.46,5.48-.35,1.03-.72,2.04-1.1,3.06l-.23.62c-.44,1.19-.7,2.31-.79,3.44Zm19.75-48.38c.2.67.42,1.34.66,2,1.6,4.51,2.56,8.34,3.02,12.06.06.47.16.93.25,1.32.04.16.12.29.19.41l.21.39.3-.1c.38-.12.56-.4.53-.82l-.06-.93c-.03-.41-.06-.83-.08-1.24-.09-1.75-.38-3.57-.86-5.4-.46-1.76-.96-3.38-1.55-4.94-.57-1.53-1.05-3.17-1.43-4.88-.13-.58-.21-1.18-.25-1.79.18.28.37.56.55.83.8,1.2,1.62,2.44,2.38,3.68,2.24,3.68,3.35,7.65,3.3,11.8-.04,3.42-1.12,6.46-3.28,9.3-.2-.67-.53-1.35-1.02-2.09-1.15-1.74-2.19-3.6-3.2-5.4l-.37-.66c-.62-1.11-1.18-2.22-1.67-3.31-.76-1.71-1.14-3.58-1.13-5.7,0-2.19.6-4.1,1.82-5.83.35-.5.7-1.01,1.07-1.56.01-.01.02-.03.04-.05.12,1,.32,1.95.6,2.88Zm-.95-3.88s-.05.01-.07.02c.1-.17.2-.34.3-.51,0,.14.01.29.02.43l-.25.06Zm-35.21-6.63c.14.24.28.48.39.73.83,1.75,1.33,3.56,1.5,5.38.14,1.51.25,3.02.36,4.54l.08,1.09c.09,1.21.23,2.63.63,4.02.41,1.43,1.03,2.66,1.88,3.73-1.86-.84-3.57-2.03-5.19-3.62-.59-.58-1.13-1.24-1.58-1.96-.53-.83-.85-1.77-.99-2.87-.06-.46,0-.92.17-1.36.2-.5.41-.99.62-1.48l.12-.28c.13-.31.27-.62.41-.93.28-.62.55-1.25.8-1.88.69-1.79.96-3.47.81-5.12Zm.55,28.05c-.15.21-.29.42-.45.62-.74.93-1.64,1.51-2.73,1.77-1.2.28-2.39.3-3.77.22.62-.85.99-1.79,1.25-2.52.24-.68.52-1.48.9-2.2.79-1.52,2.02-2.6,3.78-3.29,1.88-.74,3.95-.91,6.49-.54.34.05.78.2,1.17.38l-.53.2c-.52.19-1.06.4-1.58.64-.91.42-1.7,1.05-2.37,1.88-.51.64-1,1.29-1.5,1.94l-.31.41c-.12.16-.24.33-.36.5Zm-47.16,46.16c-.19.4-.37.8-.57,1.2-.69,1.4-1.37,2.41-2.16,3.18-.49.49-1.06.82-1.67,1.17-.19.11-.38.22-.56.33.05-.37.07-.73.06-1.09-.02-.79-.2-1.47-.55-2.09-.41-.72-1.08-1.29-1.84-1.57,2.63-.74,5.28-1.58,7.94-2.51-.23.46-.44.92-.65,1.37Zm-8.09,16.44c-.13-.16-.26-.32-.41-.45-.37-.34-.73-.33-.91-.29-.18.04-.5.16-.71.61-.07.15-.11.31-.15.48l-.17.7c-.07.31-.15.62-.22.93-.22.89-.73,1.47-1.61,1.85-.44.19-.81.33-1.19.4-.65.12-1.16-.07-1.58-.59-.36-.44-.54-.99-.55-1.7,0-.58.11-1.18.36-1.83.47-1.22,1.13-2.27,1.95-3.13.12-.12.24-.24.37-.37l.34-.34c.09-.09.22-.22.33-.39.19-.31.22-.66.1-.96-.13-.31-.41-.53-.76-.61-.16-.04-.32-.05-.55-.06l-.85-.04c-.88.03-1.76-.14-2.6-.42-.56-.19-1-.42-1.36-.71-.47-.37-.75-.8-.88-1.31-.19-.76.09-1.42.77-1.79.48-.27,1.06-.4,1.81-.41.83-.03,1.64.15,2.41.49.36.16.71.34,1.06.52l.65.33c.15.08.3.15.47.21.3.1.61.09.88-.04.26-.13.46-.37.56-.67.07-.21.08-.41.1-.64.01-.13.02-.27.03-.41.01-.2.02-.4.05-.6.1-.71.45-1.32,1.03-1.82.07-.06.15-.12.25-.18.38-.23.78-.3,1.14-.18.38.12.7.42.86.81.16.38.24.81.25,1.32,0,.46-.07.91-.23,1.34-.17.47-.38,1.02-.64,1.55-.22.45-.46.9-.7,1.33l-.37.68c-.06.11-.14.26-.17.45-.04.24.03.5.18.69.24.31.68.39,1.04.17.18-.11.33-.23.45-.37.94-1.12,2.23-1.7,4.06-1.81.91-.05,1.72.02,2.46.22.28.08.48.17.64.29.21.16.21.24.11.44-.06.12-.15.25-.29.41-.37.43-.84.77-1.43,1.03-.61.27-1.29.45-2,.52-.6.06-1.2.11-1.8.15l-1.03.08c-.17.01-.35.03-.53.08-.37.09-.65.32-.76.63-.11.31-.05.67.18.98.09.13.2.24.35.4l.43.47c.27.29.53.58.79.89.4.48.75,1.05,1.02,1.69.19.45.31.88.36,1.29.02.18.02.34,0,.49-.01.08-.03.11-.03.11,0,0-.04,0-.12,0-.12,0-.26-.03-.42-.08-.3-.1-.57-.26-.81-.5-.37-.37-.75-.76-1.12-1.18-.19-.22-.38-.46-.56-.7l-.33-.42Zm-4.81-31.42c-.58-.15-1.17-.25-1.67-.33-.2-.03-.38,0-.54.03-.06,0-.11.02-.17.02l-.31.03-.02.31c-.05.68.47.85.64.91l1.1.36c.51.17,1.03.33,1.54.51,2.12.72,4.4,1.24,6.79,1.55,2.31.3,4.46.47,6.58.52,2.09.05,4.27.26,6.48.63.88.15,1.76.37,2.62.68-.54.11-1.08.22-1.62.33-1.8.37-3.67.76-5.51,1.06-5.45.91-10.7.32-15.61-1.73-4.11-1.72-7.26-4.52-9.62-8.55.93.12,1.96.06,3.14-.18,2.62-.54,5.33-.88,7.94-1.22l.94-.12c1.61-.21,3.2-.34,4.73-.4,2.41-.09,4.81.36,7.33,1.38,2.58,1.04,4.63,2.72,6.1,4.98.43.66.86,1.31,1.35,2.01.05.09.13.21.27.32-1.35-.39-2.68-.63-4.01-.75-.91-.08-1.81-.14-2.68-.18-6.12-.25-11.12-.95-15.76-2.18Zm41.82-19.63c.9.79,1.79,1.65,2.67,2.57l.52.54c1.42,1.49,2.89,3.04,4.21,4.66.47.58.96,1.05,1.46,1.42-.11.08-.21.15-.32.23l-.34.24c-3.02.92-6.03.95-8.97.08-3.98-1.18-7.44-3.41-10.29-6.64-.96-1.09-1.9-2.24-2.8-3.35-.21-.26-.43-.53-.64-.79.57.22,1.12.48,1.63.77,1.52.87,2.95,1.82,4.23,2.81,1.32,1.02,2.71,1.98,4.26,2.94,1.61,1,3.26,1.81,4.9,2.42.39.15.78.3,1.17.45l.86.33c.4.15.71.06.93-.26l.18-.26-.31-.32c-.08-.1-.19-.21-.34-.3-.37-.21-.77-.44-1.19-.63-3.42-1.54-6.79-3.59-10.63-6.46-.56-.42-1.14-.83-1.72-1.22-.8-.54-1.65-1.01-2.57-1.42.04-.01.08-.02.11-.04.59-.17,1.17-.35,1.76-.54,2.02-.65,4.01-.65,6.11,0,2.02.63,3.69,1.53,5.1,2.77Zm-7.35,30.58c.22-.9.48-1.81.73-2.69l.08-.25c.44,1.33,1.18,2.47,1.96,3.62h0c1.05,1.54,2.11,3.06,3.18,4.59l1.37,1.96c.77,1.1,1.63,2.74,2.13,4.03h-.02c-.52-.2-1.01-.38-1.5-.54-.36-.12-.72-.23-1.08-.33-.34-.1-.69-.2-1.03-.32-.32-.1-.62-.23-.93-.36l-.31-.13c-1.85-.76-3.17-2.16-3.91-4.16-.23-.62-.44-1.31-.63-2.17-.27-1.16-.29-2.26-.04-3.26Zm-7.2-2.54c.49-.36,1.05-.72,1.67-1.08,1.86-.88,3.52-1.7,5.05-2.5l-.06.2c-.32,1.01-.64,2.06-1.01,3.07-.33.91-.75,1.82-1.15,2.7l-.17.37c-.36.8-.9,1.51-1.6,2.12l-.77.68c-.7.62-1.42,1.26-2.16,1.83-1.71,1.32-2.94,3.05-3.65,5.12-.58-1.45-.88-2.87-.91-4.31-.03-1.3.3-2.6.96-3.86.89-1.68,2.16-3.15,3.8-4.34Zm-51.07,8.16c-.87-.29-1.68-.8-2.5-1.56-.86-.81-1.69-1.73-2.61-2.91-.46-.58-.9-1.17-1.34-1.77l-.29-.39c-.43-.58-.88-1.07-1.36-1.49.21.05.43.11.66.18,2.14.66,3.95,1.59,5.54,2.86.82.65,1.68,1.38,2.66,2.22,1.08.95,2.56,2.13,4.34,2.94.14.06.28.12.42.19-1.81.43-3.67.35-5.51-.26Zm1.67-3.82c-.42-.41-.85-.8-1.28-1.19-1.8-1.62-3.98-2.87-6.48-3.72-.91-.31-1.75-.59-2.61-.82,1.47-.29,2.85-.47,4.19-.54,1.43-.07,2.88.06,4.32.4,2.08.49,3.58,1.66,4.55,3.59.35.68.55,1.35.62,2.05.09.83.19,1.75.44,2.7-1.44-.62-2.7-1.45-3.76-2.47Zm80.62-3.03c-.1.02-.23.02-.38.01-.44-.03-.88-.16-1.32-.41-.47-.26-.9-.61-1.28-1.03-.3-.33-.6-.66-.89-1l-.61-.69c-.1-.12-.21-.23-.33-.33-.26-.21-.57-.29-.84-.2-.28.08-.5.32-.6.64-.04.12-.06.25-.08.37l.37.06-.39.07-.1.49c-.05.29-.11.57-.18.86-.11.48-.31.97-.59,1.45-.2.34-.41.61-.65.84-.1.1-.2.17-.35.22-.05-.08-.1-.17-.14-.29-.08-.23-.1-.47-.07-.73.05-.41.13-.84.22-1.29.05-.23.11-.46.18-.68l.12-.42c.04-.15.08-.31.1-.49.03-.32-.07-.6-.28-.79-.15-.13-.35-.2-.56-.2-.08,0-.16,0-.24.03-.14.03-.27.08-.4.14l-1.24.53c-.66.28-1.26.23-1.91-.14-.33-.19-.59-.36-.82-.57-.37-.35-.48-.73-.36-1.23.1-.43.37-.8.8-1.13.36-.28.8-.49,1.33-.64.99-.28,1.98-.36,2.92-.25l.8.12c.11.01.25.03.42.02.31-.03.58-.19.73-.44s.16-.56.03-.85c-.05-.12-.12-.23-.23-.4l-.38-.57c-.43-.57-.75-1.19-.97-1.86-.14-.45-.21-.84-.2-1.2.01-.46.15-.84.4-1.15.38-.46.9-.59,1.44-.35.39.18.75.47,1.11.94.41.53.69,1.12.83,1.76.07.31.12.62.18.94l.1.57c.02.13.05.27.09.41.04.12.1.23.17.33l-.65,1.19,1.22-.84c.16.03.33.02.5-.04.18-.06.32-.15.48-.25l.28-.18c.13-.09.26-.17.4-.25.49-.27,1.03-.34,1.62-.21.07.02.15.04.23.08.32.13.53.33.62.6.1.28.06.61-.1.88-.16.28-.4.53-.71.77-.29.22-.61.39-.95.49-.36.11-.83.25-1.3.33-.39.08-.79.13-1.19.19l-.63.09c-.1.01-.24.04-.39.11-.18.1-.33.29-.39.5-.09.34.09.7.43.83.16.07.32.11.48.12,1.15.06,2.13.61,3.07,1.72.47.55.81,1.1,1.04,1.67.08.21.12.37.12.52,0,.18-.03.19-.16.21Zm-9.11-37.49h0s0,0,0,0Z"/>
      <path class="cls-1" d="m268.5,254.53c.38.12.79.17,1.2.17.33-.01.67-.03,1.03-.05-.08.12-.15.24-.22.36-.47.82-.53,1.7-.16,2.61.16.39.38.76.66,1.1.45.53,1.01.79,1.69.79h.1c.7-.03,1.32-.28,1.85-.75.48-.43.85-.96,1.12-1.58.32-.75.52-1.48.62-2.2.2.18.41.36.64.53.63.46,1.27.74,1.95.85.72.12,1.39,0,2-.33.91-.51,1.36-1.46,1.18-2.49-.11-.62-.4-1.19-.89-1.73-.48-.53-1.06-.95-1.77-1.29-.21-.1-.44-.19-.71-.31l-.04-.02c.04-.06.08-.11.12-.17.5-.76.66-1.6.47-2.5-.14-.67-.5-1.2-1.04-1.53-.55-.34-1.26-.43-1.9-.25-.47.13-.88.38-1.27.75-.45.43-.81.95-1.08,1.53,0,0,0,0,0,.01-.18-.29-.39-.56-.63-.82-.56-.59-1.03-1-1.53-1.31-.21-.13-.41-.23-.61-.29-.44-.15-.86-.14-1.21.05-.35.19-.6.52-.73.98-.06.2-.09.43-.1.67-.03.64.11,1.29.41,1.92.24.48.56.95.98,1.41.08.09.16.17.25.27-.09,0-.19.02-.28.03-.95.12-1.74.4-2.43.87-.15.1-.28.21-.43.33-.08.07-.16.15-.23.25-.47.64-.37,1.31.26,1.79.2.15.42.26.73.36Zm.33-1.48c.21-.16.45-.3.73-.42.41-.17.82-.27,1.21-.31.25-.02.51-.04.76-.05l.35-.02-.02-.37.13.37c.11,0,.22,0,.32-.02.29-.04.52-.21.63-.45.11-.24.08-.51-.07-.76-.07-.11-.15-.21-.25-.33l-.41-.48c-.26-.3-.51-.59-.76-.89-.29-.35-.52-.73-.67-1.12-.15-.37-.21-.73-.18-1.08,0-.12.03-.22.07-.35,0,0,.03,0,.09,0,.11.01.23.06.38.14.43.25.83.57,1.21,1,.77.87,1.1,1.7,1.02,2.61-.01.13,0,.28.04.42.08.32.38.52.71.49.19-.03.38-.14.49-.29.09-.12.12-.25.15-.35l.14-.49c.09-.3.18-.61.28-.91.12-.36.28-.71.41-1,.12-.26.28-.49.48-.69.22-.22.44-.37.68-.47.21-.09.46-.08.66.02.19.1.32.27.38.52.02.07.03.13.03.19.04.47-.07.88-.33,1.23-.07.1-.16.19-.29.34l-.16.19c-.08.09-.17.2-.24.34-.11.22-.13.46-.05.67.07.22.24.39.46.5.11.05.22.09.32.12l.45.15c.25.08.49.16.73.25.49.18.92.47,1.29.85.33.33.52.64.61.96.13.43-.02.8-.41,1.04-.26.16-.57.23-.92.18-.28-.03-.58-.12-.92-.28-.51-.25-.97-.58-1.39-.99l-.43-.38c-.08-.07-.17-.15-.27-.21-.24-.15-.52-.18-.76-.08-.24.1-.41.31-.47.58-.03.13-.03.25-.03.37v.64c0,.76-.18,1.53-.52,2.3-.17.4-.38.72-.64.97-.31.3-.62.46-.95.5-.4.04-.67-.08-.89-.4-.14-.2-.24-.42-.36-.71-.22-.54-.19-1.01.09-1.49l.58-.95c.05-.09.11-.19.15-.29.13-.36.02-.61-.06-.73-.08-.12-.27-.32-.73-.34-.12,0-.24.01-.34.02l-.35.04c-.19.03-.38.05-.57.07-.36.03-.71.04-1.05.04-.2,0-.38-.04-.55-.13-.06-.03-.12-.07-.17-.11.05-.06.11-.12.18-.17Z"/>
      <path class="cls-1" d="m322.23,311.87c-.09-.17-.26-.32-.45-.39-.12-.05-.24-.08-.36-.11-.1-.03-.2-.05-.29-.09-1.83-.78-3.44-1.91-4.78-3.37-1.09-1.19-2.35-2.33-3.87-3.5-2.17-1.67-4.62-2.34-7.27-2-.42.05-.84.11-1.26.19-1.1.19-2.26.48-3.23,1.34-.47.41-.61.7-.18,1.27.05.07.1.13.2.24.49.55.79,1.18.94,1.93l.1.49c.05.25.1.49.14.74.2,1.18.71,2.32,1.44,3.21,1.1,1.4,2.31,2.32,3.81,2.9,1.3.5,2.6.76,3.87.79.15,0,.29,0,.44,0,1.51,0,2.85-.14,4.09-.44,1.96-.47,3.83-1.1,5.23-1.61.46-.16.82-.44,1.22-.75.29-.22.38-.55.23-.83Zm-6.94.13c.9.19,1.79.37,2.69.49-1.43.47-2.77.82-4.1,1.05-1.41.25-2.87.29-4.33.14-2.13-.23-3.75-1.21-4.96-3-.42-.63-.71-1.27-.87-1.96-.19-.81-.4-1.71-.77-2.62,1.51.44,2.86,1.11,4.03,1.99.47.35.94.69,1.42,1.03,1.99,1.38,4.31,2.36,6.89,2.9Zm-7.12-7.92c.9.18,1.77.58,2.67,1.25.95.69,1.89,1.51,2.95,2.56.52.51,1.02,1.04,1.52,1.57l.36.38c.5.52,1,.95,1.53,1.31-.21-.02-.44-.06-.67-.1-2.21-.39-4.12-1.1-5.85-2.16-.89-.55-1.85-1.16-2.91-1.88-1.19-.8-2.8-1.8-4.67-2.38-.15-.04-.29-.09-.44-.13,1.74-.65,3.59-.79,5.5-.41Z"/>
      <path class="cls-1" d="m290.03,342.82s-.07-.1-.09-.15c-.53-1.14-.8-2.36-.8-3.61,0-1.04-.11-2.14-.33-3.36-.31-1.77-1.2-3.17-2.64-4.18-.22-.16-.45-.31-.68-.46-.59-.38-1.31-.77-2.19-.78-.37,0-.71.04-.77.65,0,.06,0,.11,0,.21,0,.44-.13.85-.37,1.25l-.17.29c-.08.13-.16.27-.24.4-.42.67-.68,1.45-.73,2.21-.09,1.16.09,2.14.57,3.09.41.81.92,1.51,1.52,2.08.79.75,1.57,1.33,2.36,1.77.89.49,1.87.96,3.19,1.51.31.13.61.15.94.18.02,0,.04,0,.07,0,.27,0,.48-.15.55-.4.04-.15.02-.33-.05-.47-.04-.08-.08-.15-.13-.22Zm-2.37-4.88c.02.47.03.93.04,1.4v.33c.01.27.04.53.07.78-.82-1.09-1.41-2.24-1.76-3.43-.21-.71-.39-1.43-.56-2.14-.21-.88-.53-2.01-1.14-3.08.92.44,1.71,1.11,2.36,1.98.34.46.57,1.01.71,1.69.15.74.24,1.52.29,2.47Zm-3.31-2.84c.07.37.15.74.23,1.11.35,1.54,1.03,3.02,2.04,4.41.23.33.47.65.71.96-.67-.32-1.29-.66-1.86-1.03-.77-.49-1.47-1.09-2.09-1.79-.88-1-1.22-2.13-1.02-3.46.07-.47.21-.88.42-1.26.23-.41.47-.85.68-1.34.44.78.74,1.57.9,2.41Z"/>
    </g>
  </g>
  <text class="cls-2" transform="translate(3.82 181.32) rotate(-3.07)"><tspan x="0" y="0">Bride</tspan><tspan class="cls-3" x="183.33" y="0">G</tspan><tspan x="221.49" y="0">room</tspan></text>
</svg>